<svg width="133" height="34" viewBox="0 0 133 34" fill="none" xmlns="http://www.w3.org/2000/svg">
<g clip-path="url(#clip0_1019_3830)">
<path d="M13.8304 5.21001C13.9104 4.32001 14.1904 3.49001 14.8404 2.87001C15.6204 2.13001 20.0404 0.0500143 21.0804 1.43349e-05C23.3604 -0.0999857 24.1404 2.81001 26.6104 3.38001C27.9104 3.68001 29.0304 3.15001 29.9104 4.48001C31.1804 6.38001 28.5704 9.61001 29.4204 11.05C29.4904 11.17 29.6204 11.09 29.6304 11.11C29.6504 11.13 29.8204 11.49 29.8304 11.51C29.9004 11.71 30.0004 12.17 29.8304 12.31C29.7104 12.37 29.8304 12.4 29.8304 12.41C29.8404 12.47 29.8304 12.55 29.8304 12.61C29.7304 12.64 29.5304 12.69 29.4304 12.71C29.3404 12.73 29.2504 12.81 29.2304 12.81C28.2704 12.95 26.9904 12.46 26.3304 11.76C25.5904 10.97 25.3504 9.58001 23.9304 9.61001C24.7504 12.43 26.8304 14.71 28.0304 17.31C28.3504 18.01 28.8604 19.17 28.6904 19.92C28.6204 20.22 28.3004 20.47 28.3304 20.76L28.9504 21.8C30.0304 21.91 31.1904 22.38 32.2004 22.8C33.3504 23.28 35.9004 24.52 36.6804 25.42C38.2604 27.26 35.0904 29.19 33.7404 29.97C25.4604 34.71 10.7104 34.82 2.65041 29.56C1.43041 28.76 -0.899591 27.17 0.390409 25.52C1.41041 24.22 5.79041 22.3 7.44041 21.87C7.67041 21.81 7.90041 21.84 8.13041 21.81L8.74041 20.68C8.60041 20.23 8.29041 19.91 8.36041 19.41C8.41041 19.02 9.11041 17.54 9.34041 17.13C10.4904 15.07 12.1804 13.24 13.0104 10.95C13.7704 8.87001 13.6504 7.33001 13.8404 5.23001L13.8304 5.21001ZM10.8304 20.71C10.9004 20.77 10.9904 20.78 11.0304 20.81C11.1804 20.92 11.2304 20.99 11.4304 21.11C11.7804 21.31 12.0004 21.46 12.4304 21.61C12.5104 21.64 12.6904 21.61 12.8304 21.65C13.2504 21.78 14.1804 22.2 14.5604 22.11C14.8404 21.46 15.2104 21.04 15.9104 20.83C17.1304 20.46 21.1304 20.41 22.0804 21.3C22.2904 21.49 22.4504 21.82 22.5504 22.08C22.8504 22.27 25.5704 21.16 25.9904 20.9C26.3604 20.67 26.9304 20.08 27.1404 19.7C27.1604 19.67 27.2304 19.65 27.2404 19.55C27.1404 19.08 26.9604 18.57 26.7604 18.13C26.7004 17.99 26.5504 17.93 26.5404 17.9C25.9404 16.62 25.2904 15.38 24.4904 14.2C23.1304 15.3 21.7604 16.62 20.0404 17.1V16.7C20.1004 16.67 20.1804 16.63 20.2404 16.6C20.7204 16.65 20.6404 16.42 20.7404 16.3C21.5404 15.3 22.6604 14.69 23.4604 13.37C23.6904 13 23.9404 12.74 23.4404 12.4C23.5004 11.82 22.4604 10.21 22.3204 9.52001C21.2004 9.56001 19.8004 8.28001 19.9304 7.15001C20.0404 6.15001 21.1504 7.30001 21.5704 7.52001C22.7904 8.16001 24.0304 7.93001 25.2404 8.45001C25.8304 8.71001 26.1104 9.12001 26.6404 9.40001C26.7304 9.93001 26.9104 10.23 27.2004 10.69C27.2704 10.81 27.9604 11.89 28.1404 11.7C27.8804 11 27.7804 10.41 27.8404 9.65001C27.9504 8.41001 28.9304 6.54001 28.7404 5.45001C28.7004 5.25001 28.6204 5.28001 28.5404 5.20001C28.1604 4.82001 27.7804 5.06001 27.2904 5.00001C25.8804 4.83001 24.6204 4.41001 23.5404 3.45001C22.7204 2.72001 22.0804 1.25001 20.7604 1.57001C19.9404 1.77001 16.6404 3.29001 15.9904 3.80001C15.7504 3.99001 15.4204 4.48001 15.3604 4.77001C15.1504 5.80001 15.2604 7.31001 15.1204 8.43001C14.6604 12.21 12.8604 14.17 11.0504 17.26C10.8204 17.65 9.89041 19.16 9.85041 19.46C9.79041 19.86 10.5404 20.44 10.8304 20.69V20.71ZM15.7304 26.81C15.7304 26.81 15.8004 26.94 15.8904 27C16.5804 27.39 19.0204 27.38 19.8804 27.31C20.4204 27.27 21.3804 27.2 21.5904 26.62C21.8504 25.87 21.7904 23.3 21.6204 22.48C21.5904 22.33 21.5004 22.3 21.4404 22.21C21.2904 22 21.2304 21.91 20.9604 21.83C20.0504 21.56 17.5704 21.57 16.6004 21.72C15.9704 21.81 15.6504 21.95 15.4804 22.6C15.3104 23.25 15.2004 26.05 15.4904 26.6C15.5604 26.73 15.6604 26.74 15.7304 26.8V26.81ZM26.8304 22.11C25.8604 22.58 24.7604 23.08 23.7304 23.41C23.4804 23.49 23.0104 23.52 22.7304 23.61V26.41C23.8604 26.12 26.9804 25.17 27.6704 24.3C28.0304 23.85 27.6804 22.24 27.2704 21.81C27.1204 21.78 26.9404 22.05 26.8304 22.11ZM9.43041 24.31C10.4704 25.38 12.9804 26.14 14.4304 26.41L14.3304 23.68C14.2804 23.48 13.7504 23.55 13.6304 23.51C12.3404 23.12 11.1204 22.47 9.89041 21.93C9.17041 22.38 8.98041 23.15 9.13041 23.96C9.18041 24.22 9.31041 24.19 9.43041 24.31ZM2.03041 27.01C5.76041 30.96 14.5304 32.19 19.7804 32.01C24.2804 31.86 31.5704 30.43 34.9304 27.25C35.0104 27.18 35.0204 27.01 35.0304 27C35.1704 26.9 35.5804 27 35.5404 26.45C35.5204 26.22 34.1904 25.45 33.9004 25.28C33.3204 24.95 32.5804 24.58 31.9704 24.31C31.3604 24.04 29.8404 23.37 29.2804 23.3C29.0004 23.26 29.1704 23.98 29.1304 24.2C29.1304 24.23 28.9404 24.77 28.9304 24.8C28.4604 25.85 25.7704 26.94 24.6804 27.3C22.6204 28 20.0504 28.6 17.8704 28.5C15.6904 28.4 9.13041 26.84 8.02041 24.8C7.99041 24.75 7.83041 24.26 7.82041 24.2C7.79041 24 7.95041 23.25 7.68041 23.31C6.71041 23.53 5.09041 24.25 4.18041 24.71C3.74041 24.93 1.52041 26.14 1.51041 26.55C1.49041 26.85 1.95041 26.93 2.01041 27L2.03041 27.01Z" fill="#37364C"/>
<path d="M13.8303 5.21001C13.6503 7.32001 13.7603 8.86001 13.0003 10.93C12.1703 13.22 10.4703 15.05 9.33027 17.11C9.19027 16.74 9.02027 16.37 8.90027 15.99C8.81027 15.7 8.53027 14.73 8.53027 14.51C8.53027 13.95 9.09027 12.93 9.59027 12.62C9.90027 12.43 11.3303 12.2 10.6003 11.78C9.87027 11.36 9.72027 11.67 9.13027 10.8C9.64027 8.38001 11.6003 6.21001 13.8303 5.20001V5.21001Z" fill="#E9AC55"/>
<path d="M29.2297 12.81C29.2297 14.27 28.9297 15.72 28.3097 17.05C28.2397 17.2 28.2597 17.36 28.0297 17.31C26.8297 14.71 24.7597 12.43 23.9297 9.61001C25.3497 9.58001 25.5897 10.97 26.3297 11.76C26.9897 12.47 28.2697 12.95 29.2297 12.81Z" fill="#E7AB57"/>
<path d="M8.53016 14.51C7.94016 14.66 8.10016 14.03 7.95016 13.64C7.76016 13.14 7.39016 12.71 6.90016 12.49C6.69016 12.4 5.85016 12.3 5.93016 11.96C6.51016 11.55 7.10016 11.61 7.58016 11.01C7.85016 10.68 8.13016 9.58 8.29016 9.52C8.36016 9.5 8.59016 9.49 8.62016 9.52C8.66016 9.55 8.78016 10.31 8.87016 10.52C8.95016 10.71 9.07016 10.74 9.12016 10.82C9.72016 11.69 9.86016 11.38 10.5902 11.8C11.3202 12.22 9.89016 12.45 9.58016 12.64C9.08016 12.95 8.52016 13.96 8.52016 14.53L8.53016 14.51ZM9.43016 11.91C9.22016 11.86 8.98016 11.71 8.83016 11.56C8.62016 11.35 8.55016 11.06 8.33016 10.91C8.18016 11.35 7.85016 11.78 7.39016 11.9L7.33016 12.1C7.80016 12.25 8.08016 12.64 8.38016 13C8.63016 12.67 9.05016 12.42 9.32016 12.15C9.40016 12.07 9.46016 12.06 9.43016 11.91Z" fill="#564C5D"/>
<path d="M29.6297 11.11C29.6497 10.92 29.8097 10.05 30.0797 10.11C30.3497 10.43 30.2797 10.8 30.5297 11.16C30.8397 11.62 31.4097 11.81 31.9297 11.91V12.2C31.2997 12.28 30.7297 12.45 30.4397 13.06C30.2997 13.37 30.3197 13.74 30.0797 14C29.7897 14.07 29.5697 12.93 29.4297 12.7C29.5297 12.68 29.7297 12.63 29.8297 12.6C29.9097 12.58 29.9997 12.63 30.1197 12.55C30.1597 12.52 30.6297 12.01 30.6297 11.95C30.2397 11.9 30.2097 11.2 29.8297 11.5C29.8297 11.48 29.6497 11.12 29.6297 11.1V11.11Z" fill="#544D5D"/>
<path d="M28.5297 5.21001C28.6097 5.29001 28.6897 5.25001 28.7297 5.46001C28.9297 6.55001 27.9397 8.43001 27.8297 9.66001C27.7697 10.41 27.8697 11.01 28.1297 11.71C27.9497 11.9 27.2597 10.82 27.1897 10.7C26.8997 10.24 26.7197 9.94001 26.6297 9.41001C26.4497 8.34001 26.5797 7.55001 25.5797 6.81001C24.7497 6.20001 23.8497 6.40001 22.9097 6.18001C21.5997 5.87001 20.2797 4.55001 18.9797 5.81001C17.4297 7.30001 18.4997 10.54 19.4897 12.1C20.2497 13.31 20.7697 13.13 19.8697 14.7L18.3297 16.71C19.8097 16.51 21.1797 15.46 22.1297 14.36C22.3797 14.07 23.3997 12.7 23.4297 12.41C23.9297 12.75 23.6797 13.01 23.4497 13.38C22.6397 14.69 21.5297 15.31 20.7297 16.31C20.4697 16.26 20.3197 16.56 20.2297 16.61C20.1697 16.64 20.0897 16.68 20.0297 16.71C19.9097 16.77 19.1297 16.98 19.1297 17.06C19.1397 17.48 19.7997 17.17 20.0297 17.11C21.7497 16.63 23.1197 15.32 24.4797 14.21C25.2797 15.39 25.9297 16.62 26.5297 17.91H26.4297C25.4797 16.86 24.3597 17.12 23.1897 17.62C21.8697 18.19 20.6497 19.07 19.2497 19.58C16.4197 20.61 13.9097 20.27 11.4297 18.61C13.2197 16.42 15.6897 12.53 15.9297 9.66001C16.0397 8.37001 15.6497 6.72001 15.8397 5.57001C15.8797 5.30001 16.0797 5.08001 16.2797 4.91001C16.8897 4.42001 19.7497 3.09001 20.5297 2.86001C21.8597 2.48001 22.4697 3.68001 23.4297 4.35001C24.9097 5.37001 26.7897 5.64001 28.5197 5.21001H28.5297ZM15.4997 16.52C15.3997 16.55 15.3097 16.65 15.3297 16.75C15.4697 17.03 16.3697 17.12 16.4297 16.85C16.4897 16.56 15.7097 16.45 15.4997 16.52ZM15.3297 18.01C15.6497 18.09 16.2697 18.49 16.4297 17.96C16.3697 17.71 15.2797 17.49 15.3297 18.01Z" fill="#82757D"/>
<path d="M7.82969 24.21C7.82969 24.27 7.99969 24.76 8.02969 24.81C6.70969 25.49 8.26969 26.43 8.93969 26.85C11.8597 28.7 16.8497 29.68 20.2697 29.3C22.3297 29.07 28.1197 27.57 29.3297 25.86C29.6297 25.43 29.5097 24.86 28.9297 24.81C28.9397 24.78 29.1197 24.24 29.1297 24.21C30.7497 24.62 32.4797 25.42 33.9297 26.27C34.0397 26.34 34.0997 26.5 34.1297 26.51C33.7797 26.87 33.2897 27.14 32.8597 27.39C26.4097 31.19 17.1397 31.69 10.0097 29.78C7.47969 29.1 5.05969 28.04 2.92969 26.51C3.07969 26.42 3.23969 26.22 3.45969 26.09C4.80969 25.33 6.34969 24.67 7.82969 24.21Z" fill="#81757D"/>
<path d="M2.93027 26.51C5.06027 28.04 7.48027 29.11 10.0103 29.78C17.1403 31.69 26.4103 31.19 32.8603 27.39C33.2903 27.14 33.7803 26.87 34.1303 26.51C34.3303 26.63 34.8403 26.69 35.0303 27.01C35.0203 27.01 35.0103 27.18 34.9303 27.26C31.5803 30.43 24.2903 31.87 19.7803 32.02C14.5303 32.19 5.75027 30.97 2.03027 27.02C2.28027 26.81 2.69027 26.67 2.93027 26.52V26.51Z" fill="#504956"/>
<path d="M26.6296 9.41001C26.0996 9.13001 25.8196 8.72001 25.2296 8.46001C24.0196 7.94001 22.7896 8.17001 21.5596 7.53001C21.1396 7.31001 20.0396 6.16001 19.9196 7.16001C19.7896 8.30001 21.1796 9.58001 22.3096 9.53001C22.4396 10.22 23.4896 11.83 23.4296 12.41C23.3996 12.69 22.3696 14.07 22.1296 14.36C21.1796 15.46 19.8196 16.52 18.3296 16.71L19.8696 14.7C20.7696 13.13 20.2496 13.31 19.4896 12.1C18.4996 10.54 17.4296 7.30001 18.9796 5.81001C20.2796 4.55001 21.5996 5.87001 22.9096 6.18001C23.8496 6.40001 24.7496 6.20001 25.5796 6.81001C26.5796 7.55001 26.4496 8.34001 26.6296 9.41001Z" fill="#4F4856"/>
<path d="M26.4298 17.91C26.8598 18.38 26.9998 19.09 27.1298 19.71C26.9198 20.09 26.3498 20.68 25.9798 20.91C25.5598 21.17 22.8398 22.28 22.5398 22.09C22.4398 21.82 22.2798 21.5 22.0698 21.31C21.1198 20.42 17.1098 20.47 15.8998 20.84C15.1998 21.05 14.8398 21.47 14.5498 22.12C14.1698 22.21 13.2398 21.79 12.8198 21.66C12.6798 21.62 12.4998 21.64 12.4198 21.62C12.1998 21.42 11.7698 21.04 11.5198 20.92C11.4998 20.91 11.4498 20.92 11.4198 20.92C11.3898 20.88 11.3598 20.85 11.3198 20.82C11.2398 20.75 11.1698 20.75 11.1198 20.72C11.0498 20.68 10.9398 20.64 10.9198 20.62C10.7298 20.45 10.3798 20.04 10.3398 19.78C10.3798 19.59 11.2598 18.82 11.4198 18.62C13.8998 20.28 16.4198 20.63 19.2398 19.59C20.6398 19.08 21.8598 18.2 23.1798 17.63C24.3498 17.13 25.4698 16.87 26.4198 17.92L26.4298 17.91Z" fill="#504956"/>
<path d="M10.8301 20.71C10.5401 20.47 9.79008 19.89 9.85008 19.48C9.90008 19.18 10.8201 17.67 11.0501 17.28C12.8601 14.19 14.6601 12.23 15.1201 8.45001C15.2601 7.32001 15.1501 5.81001 15.3601 4.79001C15.4201 4.50001 15.7501 4.01001 15.9901 3.82001C16.6301 3.31001 19.9401 1.79001 20.7601 1.59001C22.0801 1.27001 22.7301 2.75001 23.5401 3.47001C24.6201 4.43001 25.8801 4.84001 27.2901 5.02001C27.7801 5.08001 28.1601 4.85001 28.5401 5.22001C26.8101 5.66001 24.9201 5.39001 23.4501 4.36001C22.4901 3.69001 21.8801 2.49001 20.5501 2.87001C19.7601 3.10001 16.9101 4.43001 16.3001 4.92001C16.0901 5.08001 15.9001 5.31001 15.8601 5.58001C15.6801 6.73001 16.0601 8.38001 15.9501 9.67001C15.7101 12.54 13.2401 16.43 11.4501 18.62C11.2901 18.82 10.4001 19.6 10.3701 19.78C10.4201 20.03 10.7601 20.45 10.9501 20.62L10.8501 20.72L10.8301 20.71Z" fill="#E3B17C"/>
<path d="M8.0301 24.81C9.1401 26.86 15.6601 28.41 17.8801 28.51C20.1001 28.61 22.6301 28.01 24.6901 27.31C25.7801 26.94 28.4701 25.85 28.9401 24.81C29.5201 24.86 29.6401 25.43 29.3401 25.86C28.1301 27.57 22.3401 29.07 20.2801 29.3C16.8601 29.68 11.8801 28.71 8.9501 26.85C8.2801 26.43 6.7301 25.48 8.0401 24.81H8.0301Z" fill="#504956"/>
<path d="M21.4298 22.21C21.4898 22.3 21.5798 22.32 21.6098 22.48C21.7798 23.3 21.8398 25.87 21.5798 26.62C21.3798 27.2 20.4198 27.28 19.8698 27.31C19.0098 27.37 16.5798 27.39 15.8798 27C15.7898 26.95 15.7698 26.86 15.7198 26.81C15.7998 25.95 15.5098 22.91 16.0498 22.34C16.6398 21.7 20.4598 22.18 21.4198 22.21H21.4298ZM16.1298 25.81C16.1998 26.44 16.7298 26.6 17.2898 26.7C17.9898 26.83 20.1198 26.88 20.6698 26.5C20.9298 26.32 21.0198 25.77 21.0398 25.46C21.0698 24.87 20.9098 24 20.8398 23.41C20.8398 23.4 20.9298 23.33 20.8998 23.21C20.7798 22.69 20.2598 22.65 19.7898 22.61C19.1998 22.56 16.9298 22.63 16.4998 22.92C16.0298 23.23 16.0698 25.24 16.1398 25.81H16.1298Z" fill="#E0AD7A"/>
<path d="M26.8305 22.11C26.9505 22.05 27.1205 21.78 27.2705 21.81C27.6805 22.24 28.0305 23.86 27.6705 24.3C26.9705 25.16 23.8505 26.11 22.7305 26.41V23.61C23.0105 23.52 23.4805 23.49 23.7305 23.41C24.0005 23.88 23.9305 24.39 23.9305 24.91C24.5205 24.86 26.9505 24.05 27.1105 23.54C27.2205 23.18 27.0105 22.45 26.8305 22.11Z" fill="#844947"/>
<path d="M9.62969 23.51C10.6897 23.95 11.9297 24.77 13.0897 24.91C13.3897 24.95 13.1697 24.31 13.2297 24.11C13.2497 24.06 13.6797 23.74 13.6297 23.51C13.7597 23.55 14.2897 23.48 14.3297 23.68L14.4297 26.41C12.9797 26.14 10.4797 25.38 9.42969 24.31C9.54969 24.06 9.58969 23.78 9.62969 23.51Z" fill="#834847"/>
<path d="M2.0297 27.01C1.9697 26.94 1.4997 26.86 1.5297 26.56C1.5297 26.15 3.7597 24.94 4.1997 24.72C5.1097 24.26 6.7297 23.54 7.6997 23.32C7.9597 23.26 7.8097 24.01 7.8397 24.21C6.3597 24.68 4.8197 25.33 3.4697 26.09C3.2397 26.22 3.0897 26.41 2.9397 26.51C2.6997 26.66 2.2897 26.8 2.0397 27.01H2.0297Z" fill="#E2AF7C"/>
<path d="M35.0304 27.01C34.8404 26.69 34.3304 26.63 34.1304 26.51C34.1004 26.49 34.0404 26.33 33.9304 26.27C32.4904 25.42 30.7504 24.62 29.1304 24.21C29.1704 23.99 28.9904 23.27 29.2804 23.31C29.8404 23.38 31.3804 24.06 31.9704 24.32C32.5604 24.58 33.3204 24.96 33.9004 25.29C34.1904 25.46 35.5204 26.23 35.5404 26.46C35.5904 27.01 35.1704 26.91 35.0304 27.01Z" fill="#E0AF7B"/>
<path d="M26.8305 22.11C27.0105 22.45 27.2205 23.18 27.1105 23.54C26.9505 24.04 24.5205 24.86 23.9305 24.91C23.9305 24.39 24.0005 23.88 23.7305 23.41C24.7605 23.08 25.8605 22.58 26.8305 22.11Z" fill="#E47F49"/>
<path d="M13.6298 23.51C13.6798 23.74 13.2498 24.06 13.2298 24.11C12.9998 23.87 12.6998 24.14 12.6298 24.36L12.4998 24.4C11.8398 24.26 10.5898 22.99 10.0698 22.91C9.49975 22.82 9.67975 23.18 9.62975 23.51C9.58975 23.78 9.54975 24.06 9.42975 24.31C9.30975 24.19 9.17975 24.22 9.12975 23.96C8.97975 23.15 9.17975 22.38 9.88975 21.93C11.1198 22.48 12.3298 23.12 13.6298 23.51Z" fill="#E5B07B"/>
<path d="M21.4305 22.21C20.4605 22.18 16.6505 21.7 16.0605 22.34C15.5305 22.92 15.8205 25.95 15.7305 26.81C15.6605 26.74 15.5505 26.73 15.4905 26.61C15.2005 26.06 15.3005 23.29 15.4805 22.61C15.6605 21.93 15.9605 21.82 16.6005 21.73C17.5705 21.59 20.0604 21.57 20.9604 21.84C21.2204 21.92 21.2905 22 21.4405 22.22L21.4305 22.21Z" fill="#F1EEED"/>
<path d="M29.8301 11.51C30.2101 11.21 30.2401 11.91 30.6301 11.96C30.6301 12.01 30.1701 12.53 30.1201 12.56C30.0001 12.64 29.9001 12.59 29.8301 12.61C29.8301 12.55 29.8401 12.47 29.8301 12.41V12.31C30.0001 12.17 29.9001 11.71 29.8301 11.51Z" fill="#CE754F"/>
<path d="M20.0299 16.71V17.11C19.7999 17.17 19.1399 17.48 19.1299 17.06C19.1299 16.97 19.9099 16.77 20.0299 16.71Z" fill="#3D3A4F"/>
<path d="M12.4297 21.61C11.9997 21.46 11.7797 21.31 11.4297 21.11L11.5297 20.91C11.7797 21.03 12.2097 21.41 12.4297 21.61Z" fill="#C49C76"/>
<path d="M11.3303 20.81L11.2303 20.91C11.2903 20.92 11.3803 20.9 11.4303 20.91C11.4603 20.91 11.5103 20.9 11.5303 20.91L11.4303 21.11C11.2303 20.99 11.1803 20.92 11.0303 20.81L11.1303 20.71C11.1303 20.71 11.2503 20.74 11.3303 20.81Z" fill="#E3B17C"/>
<path d="M20.7305 16.31C20.6305 16.43 20.7105 16.66 20.2305 16.61C20.3205 16.56 20.4705 16.26 20.7305 16.31Z" fill="#3D3A4F"/>
<path d="M27.1297 19.71C26.9997 19.09 26.8597 18.38 26.4297 17.91H26.5297C26.5297 17.91 26.6897 18 26.7497 18.14C26.9497 18.58 27.1297 19.09 27.2297 19.56C27.2297 19.66 27.1497 19.68 27.1297 19.71Z" fill="#645D6A"/>
<path d="M11.1301 20.71L11.0301 20.81C11.0301 20.81 10.9001 20.77 10.8301 20.71L10.9301 20.61C10.9301 20.61 11.0601 20.67 11.1301 20.71Z" fill="#C49C76"/>
<path d="M29.8297 12.41C29.8297 12.41 29.7097 12.37 29.8297 12.31V12.41Z" fill="#544D5D"/>
<path d="M9.43008 11.91C9.47008 12.06 9.41008 12.07 9.32008 12.15C9.05008 12.42 8.62008 12.67 8.38008 13C8.08008 12.64 7.80008 12.25 7.33008 12.1L7.39008 11.9C7.84008 11.78 8.18008 11.34 8.33008 10.91C8.55008 11.06 8.61008 11.36 8.83008 11.56C8.98008 11.71 9.22008 11.86 9.43008 11.91Z" fill="#F4C7AB"/>
<path d="M15.4996 16.52C15.7096 16.45 16.4896 16.57 16.4296 16.85C16.3696 17.12 15.4696 17.03 15.3296 16.75C15.2996 16.64 15.3996 16.55 15.4996 16.52Z" fill="#544D5D"/>
<path d="M15.3298 18.01C15.2798 17.5 16.3698 17.71 16.4298 17.96C16.2698 18.48 15.6498 18.09 15.3298 18.01Z" fill="#564C5D"/>
<path d="M11.4305 20.91C11.3805 20.89 11.2905 20.92 11.2305 20.91L11.3305 20.81C11.3305 20.81 11.4005 20.87 11.4305 20.91Z" fill="#37364C"/>
<path d="M20.8304 23.41C20.6004 23.48 20.6404 23.67 20.6204 23.85C20.5804 24.45 20.7304 25.31 20.6204 25.86C20.6004 25.99 20.5704 26.03 20.4604 26.1C19.9204 26.47 16.7004 26.46 16.1204 25.81C16.0504 25.24 16.0104 23.23 16.4804 22.92C16.9104 22.63 19.1804 22.56 19.7704 22.61C20.2504 22.65 20.7604 22.69 20.8804 23.21C20.9104 23.33 20.8204 23.4 20.8204 23.41H20.8304ZM19.8304 23.71H17.2804C17.0404 23.95 17.0304 25.21 17.3304 25.36C17.7104 25.55 19.3404 25.39 19.8304 25.31V23.71Z" fill="#38364C"/>
<path d="M16.1299 25.81C16.7099 26.47 19.9299 26.47 20.4699 26.1C20.5799 26.03 20.5999 25.99 20.6299 25.86C20.7299 25.31 20.5799 24.46 20.6299 23.85C20.6399 23.66 20.6099 23.48 20.8399 23.41C20.9199 24 21.0699 24.87 21.0399 25.46C21.0299 25.77 20.9299 26.31 20.6699 26.5C20.1299 26.89 17.9899 26.83 17.2899 26.7C16.7299 26.6 16.1999 26.44 16.1299 25.81Z" fill="#EFECEB"/>
<path d="M9.62988 23.51C9.67988 23.19 9.50988 22.82 10.0699 22.91C10.5899 22.99 11.8399 24.26 12.4999 24.4L12.6299 24.36C12.6999 24.14 12.9999 23.86 13.2299 24.11C13.1699 24.31 13.3799 24.94 13.0899 24.91C11.9299 24.77 10.6999 23.95 9.62988 23.51Z" fill="#E2854B"/>
<path d="M19.8303 23.71V25.31C19.3403 25.39 17.7103 25.55 17.3303 25.36C17.0303 25.21 17.0403 23.95 17.2803 23.71H19.8303Z" fill="#814747"/>
</g>
<path d="M123.714 23.5885V22.1207L128.645 16.0123V15.8541H123.793V13.9205H131.668V15.5641L127.027 21.5055V21.6549H131.782V23.5885H123.714Z" fill="black"/>
<path d="M118.827 23.5885V13.9205H121.394V23.5885H118.827ZM120.11 12.4528C119.718 12.4528 119.378 12.3151 119.091 12.0397C118.81 11.7584 118.669 11.4215 118.669 11.0289C118.669 10.6305 118.81 10.2936 119.091 10.0182C119.378 9.7428 119.718 9.6051 120.11 9.6051C120.509 9.6051 120.849 9.7428 121.13 10.0182C121.411 10.2936 121.552 10.6305 121.552 11.0289C121.552 11.4215 121.411 11.7584 121.13 12.0397C120.849 12.3151 120.509 12.4528 120.11 12.4528Z" fill="black"/>
<path d="M103.517 23.5885L100.15 10.9059H102.91L104.896 19.9762H105.028L107.34 10.9059H109.59L111.945 19.9762H112.077L114.037 10.9059H116.779L113.422 23.5885H110.926L108.535 15.0455H108.395L106.021 23.5885H103.517Z" fill="black"/>
<path d="M95.1846 23.7906C94.2061 23.7906 93.3623 23.5885 92.6533 23.1842C91.9502 22.7799 91.4082 22.2028 91.0273 21.4528C90.6465 20.6969 90.4561 19.8033 90.4561 18.7721V18.7633C90.4561 17.7379 90.6436 16.8473 91.0186 16.0914C91.3994 15.3356 91.9355 14.7526 92.627 14.3424C93.3242 13.9264 94.1416 13.7184 95.0791 13.7184C96.0166 13.7184 96.8281 13.9205 97.5137 14.3248C98.1992 14.7233 98.7266 15.2858 99.0957 16.0123C99.4648 16.7389 99.6494 17.5914 99.6494 18.5699V19.3698H91.7393V17.7614H98.4189L97.2148 19.2819V18.2535C97.2148 17.6735 97.127 17.1901 96.9512 16.8033C96.7754 16.4166 96.5293 16.1266 96.2129 15.9332C95.9023 15.734 95.5391 15.6344 95.123 15.6344C94.707 15.6344 94.3408 15.7369 94.0244 15.942C93.708 16.1412 93.4561 16.4371 93.2686 16.8297C93.0869 17.2164 92.9961 17.691 92.9961 18.2535V19.2906C92.9961 19.8297 93.0869 20.2926 93.2686 20.6793C93.4502 21.066 93.708 21.3619 94.042 21.567C94.376 21.7721 94.7744 21.8746 95.2373 21.8746C95.6123 21.8746 95.9316 21.819 96.1953 21.7076C96.459 21.5963 96.6699 21.4674 96.8281 21.3209C96.9922 21.1686 97.1035 21.0309 97.1621 20.9078L97.1885 20.8551L99.5703 20.8463L99.5527 20.943C99.4766 21.2477 99.3389 21.567 99.1396 21.901C98.9404 22.2291 98.665 22.5367 98.3135 22.8239C97.9678 23.111 97.5342 23.3453 97.0127 23.527C96.4971 23.7028 95.8877 23.7906 95.1846 23.7906Z" fill="black"/>
<path d="M82.6865 23.7467C81.8838 23.7467 81.1895 23.5475 80.6035 23.149C80.0176 22.7448 79.5635 22.1705 79.2412 21.4264C78.9248 20.6823 78.7666 19.7946 78.7666 18.7633V18.7457C78.7666 17.7086 78.9219 16.818 79.2324 16.0739C79.5488 15.3297 80 14.7614 80.5859 14.3688C81.1719 13.9703 81.8721 13.7711 82.6865 13.7711C83.1318 13.7711 83.542 13.8414 83.917 13.9821C84.2979 14.1168 84.6289 14.3102 84.9102 14.5621C85.1973 14.8141 85.4229 15.1188 85.5869 15.4762H85.7363V10.2467H88.3027V23.5885H85.7363V22.0856H85.5869C85.417 22.4313 85.1914 22.7272 84.9102 22.9733C84.6348 23.2194 84.3096 23.4098 83.9346 23.5446C83.5596 23.6793 83.1436 23.7467 82.6865 23.7467ZM83.5654 21.6198C84.0166 21.6198 84.4062 21.5055 84.7344 21.277C85.0625 21.0485 85.3145 20.7203 85.4902 20.2926C85.6719 19.8649 85.7627 19.358 85.7627 18.7721V18.7545C85.7627 18.1569 85.6719 17.6471 85.4902 17.2252C85.3145 16.7975 85.0625 16.4694 84.7344 16.2408C84.4062 16.0123 84.0166 15.8981 83.5654 15.8981C83.1143 15.8981 82.7246 16.0123 82.3965 16.2408C82.0684 16.4694 81.8164 16.7975 81.6406 17.2252C81.4648 17.6471 81.377 18.1539 81.377 18.7457V18.7633C81.377 19.3551 81.4648 19.8649 81.6406 20.2926C81.8164 20.7203 82.0684 21.0485 82.3965 21.277C82.7246 21.5055 83.1143 21.6198 83.5654 21.6198Z" fill="black"/>
<path d="M71.3047 23.7379C70.6895 23.7379 70.1416 23.6207 69.6611 23.3864C69.1865 23.1461 68.8145 22.8092 68.5449 22.3756C68.2754 21.9362 68.1406 21.4235 68.1406 20.8375V20.8199C68.1406 20.2399 68.2842 19.7418 68.5713 19.3258C68.8643 18.9098 69.2891 18.5846 69.8457 18.3502C70.4082 18.11 71.0908 17.9664 71.8936 17.9196L75.4971 17.7086V19.2731L72.2803 19.484C71.7295 19.5133 71.3193 19.6305 71.0498 19.8356C70.7803 20.0406 70.6455 20.319 70.6455 20.6705V20.6881C70.6455 21.0514 70.7861 21.3385 71.0674 21.5494C71.3486 21.7604 71.7119 21.8658 72.1572 21.8658C72.5557 21.8658 72.9102 21.7867 73.2207 21.6285C73.5312 21.4703 73.7773 21.2565 73.959 20.9869C74.1406 20.7174 74.2314 20.4127 74.2314 20.0729V16.9967C74.2314 16.5748 74.0908 16.2496 73.8096 16.0211C73.5342 15.7926 73.1328 15.6783 72.6055 15.6783C72.1426 15.6783 71.7646 15.7604 71.4717 15.9244C71.1846 16.0826 70.9912 16.3053 70.8916 16.5924L70.8828 16.6276H68.5098L68.5186 16.5397C68.583 15.9713 68.7939 15.4762 69.1514 15.0543C69.5146 14.6324 70.001 14.3043 70.6104 14.0699C71.2256 13.8356 71.9375 13.7184 72.7461 13.7184C73.6016 13.7184 74.3281 13.8473 74.9258 14.1051C75.5234 14.3629 75.9775 14.7379 76.2881 15.2301C76.6045 15.7164 76.7627 16.3024 76.7627 16.9879V23.5885H74.2314V22.3053H74.0732C73.9092 22.6041 73.6895 22.8619 73.4141 23.0787C73.1445 23.2897 72.8281 23.4537 72.4648 23.5709C72.1074 23.6823 71.7207 23.7379 71.3047 23.7379Z" fill="black"/>
<path d="M61.0654 23.5885V13.9205H63.6318V15.441H63.7812C63.9395 14.9078 64.2266 14.4977 64.6426 14.2106C65.0645 13.9176 65.5859 13.7711 66.207 13.7711C66.3828 13.7711 66.5527 13.7828 66.7168 13.8063C66.8867 13.8239 67.0332 13.8502 67.1562 13.8854V16.1266C66.9688 16.0797 66.7783 16.0446 66.585 16.0211C66.3916 15.9977 66.1924 15.986 65.9873 15.986C65.5068 15.986 65.0879 16.0739 64.7305 16.2496C64.3789 16.4254 64.1064 16.6774 63.9131 17.0055C63.7256 17.3336 63.6318 17.7262 63.6318 18.1832V23.5885H61.0654Z" fill="black"/>
<path d="M53.1816 23.9049C52.2383 23.9049 51.3916 23.7526 50.6416 23.4479C49.8916 23.1432 49.2529 22.7037 48.7256 22.1295C48.2041 21.5494 47.8027 20.8492 47.5215 20.0289C47.2402 19.2028 47.0996 18.274 47.0996 17.2428V17.2252C47.0996 15.8658 47.3457 14.691 47.8379 13.7008C48.3301 12.7047 49.0273 11.9371 49.9297 11.3981C50.832 10.859 51.8984 10.5895 53.1289 10.5895C54.125 10.5895 55.0186 10.7682 55.8096 11.1256C56.6006 11.483 57.2451 11.9811 57.7432 12.6198C58.2471 13.2526 58.5605 13.9908 58.6836 14.8346L58.7012 14.9225H56.0645L56.0469 14.8434C55.8652 14.2106 55.5166 13.7184 55.001 13.3668C54.4912 13.0153 53.8672 12.8395 53.1289 12.8395C52.4434 12.8395 51.8516 13.0153 51.3535 13.3668C50.8613 13.7184 50.4805 14.2223 50.2109 14.8785C49.9414 15.5289 49.8066 16.3024 49.8066 17.1989V17.2164C49.8066 17.902 49.8857 18.5201 50.0439 19.0709C50.2021 19.6158 50.4307 20.0817 50.7295 20.4684C51.0283 20.8551 51.3887 21.151 51.8105 21.3561C52.2324 21.5553 52.7041 21.6549 53.2256 21.6549C53.8057 21.6549 54.3184 21.5465 54.7637 21.3297C55.209 21.1071 55.5576 20.7965 55.8096 20.3981C56.0615 19.9996 56.1963 19.5338 56.2139 19.0006L56.2227 18.7633H53.4717V16.8297H58.8066V18.4293C58.8066 19.2731 58.6777 20.0319 58.4199 20.7057C58.1621 21.3795 57.7871 21.9567 57.2949 22.4371C56.8086 22.9117 56.2168 23.275 55.5195 23.527C54.8281 23.7789 54.0488 23.9049 53.1816 23.9049Z" fill="black"/>
<defs>
<clipPath id="clip0_1019_3830">
<rect width="37.1" height="33.51" fill="white"/>
</clipPath>
</defs>
</svg>
